<?xml version="1.0" encoding="utf-8"?>
<!-- Generator: Adobe Illustrator 22.1.0, SVG Export Plug-In . SVG Version: 6.00 Build 0)  -->
<svg version="1.1" id="Слой_1" xmlns="http://www.w3.org/2000/svg" xmlns:xlink="http://www.w3.org/1999/xlink" x="0px" y="0px"
	 viewBox="0 0 135 97" style="enable-background:new 0 0 135 97;" xml:space="preserve">
<style type="text/css">
	.st0{fill:#FFFFFF;}
	.st1{fill:#020203;}
	.st2{fill:#171414;}
</style>
<g>
	<g>
		<path class="st0" d="M128.3,31.3c-0.5-0.9-1.1-1.8-1.7-2.8c-0.5-0.7-1-1.3-1.6-1.8c0.6-1,1-2.1,1-3.3V19l4.7-8.9
			c1-2,1-4.3-0.2-6.2c-1.1-1.9-3.2-3.1-5.4-3.1h-3.1c-1.4,0-2.7,0.4-3.7,1.2c-1.1-0.8-2.4-1.2-3.7-1.2h-3.1c-0.2,0-0.5,0-0.7,0
			c-0.2,0-0.5,0-0.7,0h-3.7c-1.8,0-3.5,0.8-4.7,2.1c-1.2-1.3-2.9-2.1-4.7-2.1H93c-1.8,0-3.4,0.7-4.5,1.9c-1.1-1.2-2.8-1.9-4.5-1.9
			h-2.8c-1.4,0-2.6,0.4-3.6,1.1c-1-0.7-2.3-1.1-3.6-1.1h-2.8c-1.2,0-2.3,0.3-3.2,0.9c-1.5-0.6-3.3-1.1-5.5-1.1c-2.1,0-4,0.4-5.7,1.3
			c-1-0.7-2.2-1-3.5-1h-2.8c-1.2,0-2.3,0.3-3.3,0.9c-1-0.6-2.1-0.9-3.3-0.9h-2.8c-1.3,0-2.5,0.4-3.5,1.1c-1.8-0.9-3.7-1.3-5.8-1.3
			c-1.8,0-3.5,0.3-5.1,1c-0.9-0.5-1.9-0.8-3-0.8H10.7c-3.5,0-6.3,2.8-6.3,6.3v2.3c0,3.1,2.2,5.6,5,6.2v7.8c0,1.2,0.4,2.4,1,3.4
			c-0.6,0.5-1.1,1.1-1.6,1.8v0C3.6,36,0.9,45,0.9,54c0.1,8.6,2.8,17.1,7.9,24c2.5,3.4,5.4,6.3,8.7,8.8c3.5,2.6,7.2,4.5,11.2,5.7
			c3.5,1.1,7.2,1.6,10.9,1.6c0.7,0,1.4,0,2.1-0.1c4.4-0.2,8.7-1.2,12.7-2.9c4.3-1.8,8.2-4.4,11.3-7.6c0.7-0.7,1.4-1.5,2-2.3
			c2.7,3.4,6.2,6.3,10.2,8.5c5.4,2.9,11.5,4.4,17.7,4.4c2.6,0,5.3-0.3,7.9-0.8c8-1.7,15.5-6.2,21-12.7c5.6-6.6,9-14.6,9.7-23.2
			C134.9,48.5,132.8,39.2,128.3,31.3z M31.2,15c0.3-0.1,0.6-0.1,0.8,0v0.5c-0.3,0.1-0.5,0.1-0.8,0V15z"/>
		<path class="st1" d="M39.6,94.7c-3.8,0-7.5-0.6-11.1-1.7c-4.1-1.2-7.9-3.2-11.4-5.8c-3.3-2.5-6.3-5.5-8.9-8.9
			c-5.1-6.9-7.9-15.6-8-24.3C0.2,44.9,3,35.7,8.2,28.2c0.4-0.6,0.8-1.1,1.3-1.6c-0.5-1-0.8-2.1-0.8-3.2v-7.3c-2.9-0.9-5-3.6-5-6.7
			V7.1c0-3.9,3.1-7,7-7h12.9c1.1,0,2.1,0.2,3,0.7c1.6-0.6,3.3-0.9,5-0.9c2,0,4,0.4,5.7,1.2c1.1-0.6,2.3-1,3.6-1h2.8
			c1.1,0,2.3,0.3,3.3,0.8c1-0.5,2.1-0.8,3.3-0.8h2.8c1.2,0,2.5,0.3,3.5,1c1.7-0.8,3.6-1.2,5.7-1.2c2,0,3.8,0.4,5.5,1
			c1-0.5,2.1-0.8,3.3-0.8h2.8c1.3,0,2.5,0.4,3.6,1c1.1-0.7,2.3-1,3.6-1H84c1.7,0,3.3,0.6,4.5,1.7c1.3-1.1,2.8-1.7,4.5-1.7h3.7
			c1.7,0,3.4,0.6,4.7,1.8c1.3-1.2,3-1.8,4.7-1.8h3.7c0.2,0,0.5,0,0.7,0c0.3,0,0.5,0,0.7,0h3.1c1.3,0,2.6,0.4,3.7,1.1
			c1.1-0.7,2.4-1.1,3.7-1.1h3.1c2.4,0,4.7,1.3,6,3.4c1.3,2.1,1.3,4.7,0.2,6.9l-4.6,8.7v4.2c0,1.1-0.3,2.2-0.8,3.2
			c0.5,0.5,1,1,1.3,1.6c0.6,0.9,1.2,1.9,1.8,2.8l0,0c4.6,8,6.7,17.4,6,26.3c-0.8,8.7-4.2,16.9-9.9,23.6
			c-5.6,6.6-13.2,11.2-21.4,12.9c-2.7,0.6-5.4,0.8-8.1,0.8c-6.3,0-12.5-1.5-18-4.5c-3.8-2.1-7.2-4.8-9.9-8c-0.5,0.6-1,1.1-1.5,1.7
			c-3.1,3.2-7.1,5.9-11.5,7.8c-4.1,1.7-8.4,2.7-12.9,3C41,94.7,40.3,94.7,39.6,94.7z M10.7,1.5C7.5,1.5,5,4,5,7.1v2.3
			c0,2.7,1.9,5,4.5,5.5l0.5,0.1v8.3c0,1.1,0.3,2.1,0.9,3l0.3,0.5l-0.4,0.4c-0.6,0.5-1.1,1-1.5,1.7c-5,7.3-7.7,16.2-7.6,25
			c0.1,8.5,2.8,16.9,7.7,23.6c2.5,3.3,5.3,6.2,8.6,8.6c3.4,2.5,7.1,4.4,11,5.6c3.4,1.1,7,1.6,10.7,1.6c0.7,0,1.4,0,2-0.1
			c4.3-0.2,8.5-1.2,12.5-2.9c4.2-1.8,8-4.4,11-7.5c0.7-0.7,1.3-1.5,1.9-2.2l0.5-0.7l0.5,0.7c2.6,3.3,6,6.2,10,8.3
			c5.3,2.8,11.3,4.3,17.3,4.3c2.6,0,5.2-0.3,7.8-0.8c7.9-1.7,15.2-6.1,20.6-12.5c5.5-6.5,8.8-14.4,9.6-22.8
			c0.8-8.7-1.3-17.7-5.8-25.5l0,0c-0.5-0.9-1.1-1.8-1.7-2.7c-0.4-0.6-0.9-1.2-1.5-1.7l-0.5-0.4l0.3-0.5c0.6-0.9,0.9-1.9,0.9-3v-4.6
			l4.8-9c0.9-1.7,0.9-3.9-0.1-5.6c-1-1.7-2.9-2.7-4.8-2.7h-3.1c-1.2,0-2.4,0.4-3.3,1.1l-0.4,0.3l-0.4-0.3c-1-0.7-2.1-1.1-3.3-1.1
			h-3.1c-0.2,0-0.4,0-0.6,0l-0.1,0l-0.1,0c-0.2,0-0.4,0-0.7,0h-3.7c-1.6,0-3.1,0.7-4.2,1.9l-0.5,0.5l-0.5-0.5
			c-1.1-1.2-2.6-1.9-4.2-1.9H93c-1.5,0-3,0.6-4,1.7l-0.5,0.5L88,3.2c-1.1-1.1-2.5-1.7-4-1.7h-2.8c-1.2,0-2.3,0.4-3.3,1l-0.4,0.3
			l-0.4-0.3c-1-0.7-2.1-1-3.3-1h-2.8c-1,0-2,0.3-2.9,0.8l-0.3,0.2l-0.3-0.1c-1.6-0.7-3.3-1.1-5.3-1.1c-2,0-3.8,0.4-5.4,1.2l-0.3,0.2
			l-0.3-0.2c-0.9-0.6-2-0.9-3.1-0.9h-2.8c-1,0-2,0.3-2.9,0.8L47,2.5l-0.3-0.2c-0.9-0.5-1.9-0.8-2.9-0.8h-2.8c-1.1,0-2.2,0.3-3.2,1
			l-0.3,0.2l-0.4-0.2c-1.7-0.8-3.5-1.2-5.5-1.2c-1.7,0-3.3,0.3-4.8,0.9l-0.3,0.1l-0.3-0.2c-0.8-0.4-1.7-0.7-2.7-0.7H10.7z
			 M31.6,16.3c-0.2,0-0.4,0-0.6-0.1l-0.5-0.1v-1.6l0.5-0.1c0.4-0.1,0.7-0.1,1.1,0l0.6,0.1v1.6l-0.5,0.1C32,16.2,31.8,16.3,31.6,16.3
			z"/>
	</g>
	<g>
		<path class="st0" d="M30.3,12.5c-1.3,1.1-1.7,3.2-1,4.7c0.1,0.2,0.3,0.5,0.5,0.7c0.2,0.2,0.5,0.2,0.8,0.3c0.6,0.1,1.3,0.3,1.9,0
			c0.4-0.2,0.7-0.6,1-1c0.3-0.5,0.6-1.1,0.6-1.8c0-0.6-0.4-1.2-0.7-1.7c-0.2-0.4-0.5-0.8-0.9-1c-0.4-0.2-0.8-0.2-1.2-0.2
			c-0.5,0-0.9,0-1.4,0.2s-0.8,0.6-0.8,1.1"/>
	</g>
	<g>
		<g>
			<g>
				<g>
					<path class="st2" d="M13.9,32.1c-4.3,6.4-6.7,14.1-6.7,21.8c0,7.2,2.3,14.4,6.6,20.2c4.2,5.7,9.9,10.1,16.7,12.2
						c6.9,2.1,14.6,1.7,21.3-1.1c6.6-2.8,13.1-8.5,14.4-15.8c0.2-1,0.3-1.9,0.2-2.9c0-1.1-0.9-2.1-2-2c-1.1,0-2,0.9-2,2
						c0,0.4,0,0.8,0,1.3c0,0-0.1,0.7,0,0.3c0,0.2-0.1,0.4-0.1,0.6c-0.2,0.8-0.4,1.6-0.7,2.4c-0.2,0.6,0.2-0.3-0.1,0.3
						c-0.1,0.2-0.2,0.4-0.3,0.6c-0.2,0.4-0.4,0.7-0.6,1.1c-0.2,0.3-0.4,0.6-0.6,0.9c-0.1,0.2-0.2,0.4-0.4,0.5
						c-0.1,0.1-0.2,0.2-0.3,0.3c0.1-0.1,0.1-0.1-0.1,0.1c-2.2,2.7-4.5,4.5-7.6,6c-0.3,0.2-0.7,0.3-1,0.5c-0.2,0.1-0.3,0.1-0.5,0.2
						c0.3-0.1-0.3,0.1-0.3,0.1c-0.8,0.3-1.7,0.6-2.5,0.9c-0.7,0.2-1.5,0.4-2.2,0.6c-0.4,0.1-0.8,0.2-1.2,0.2c-0.2,0-0.4,0.1-0.6,0.1
						c0.4-0.1-0.2,0-0.3,0c-1.7,0.2-3.3,0.2-5,0.2c-0.4,0-0.8-0.1-1.2-0.1c-0.2,0-0.4,0-0.6-0.1c0,0-0.7-0.1-0.3,0
						c-0.8-0.1-1.6-0.3-2.4-0.5c-0.8-0.2-1.6-0.4-2.4-0.7c-0.3-0.1-0.7-0.2-1-0.3c-0.2-0.1-0.4-0.1-0.6-0.2c-0.1,0-0.2-0.1-0.4-0.1
						c0.2,0.1,0.2,0.1-0.1,0c-1.5-0.6-2.9-1.4-4.2-2.3c-0.6-0.4-1.2-0.8-1.8-1.3c-0.5-0.4,0.3,0.2-0.2-0.2c-0.2-0.1-0.3-0.2-0.5-0.4
						c-0.4-0.3-0.7-0.6-1.1-0.9c-1.1-1-2.2-2.1-3.2-3.3c-0.1-0.2-0.3-0.3-0.4-0.5c0,0-0.4-0.5-0.2-0.2c-0.2-0.3-0.5-0.6-0.7-1
						c-0.5-0.7-0.9-1.3-1.3-2c-0.4-0.7-0.8-1.4-1.2-2.1c-0.2-0.3-0.3-0.6-0.4-0.9c-0.1-0.2-0.2-0.4-0.3-0.5c0-0.1-0.3-0.8-0.2-0.4
						c-1.3-3.1-2.1-6.5-2.3-9.5c-0.3-4,0.1-7.6,1.1-11.4c1.1-3.9,2.6-7.2,4.9-10.6c0.6-0.9,0.2-2.2-0.7-2.8
						C15.7,30.8,14.6,31.2,13.9,32.1L13.9,32.1z"/>
				</g>
			</g>
			<g>
				<g>
					<path class="st2" d="M34.8,65.3c-2.2,1.6-3.4,4.1-3.1,6.8c0.3,2.8,1.9,5.1,4.5,6.1c2.3,0.9,5.1,0.5,7.1-1
						c2.3-1.7,3.3-4.3,2.8-7.1c-0.5-2.8-2.7-5.3-5.5-5.9c-1-0.2-2.2,0.3-2.5,1.4c-0.2,1,0.3,2.2,1.4,2.5c0.2,0,0.4,0.1,0.6,0.2
						c0.3,0-0.2-0.2,0,0c0.1,0,0.1,0.1,0.2,0.1c0.2,0.1,0.4,0.2,0.6,0.3c-0.3-0.2,0.1,0.1,0.2,0.2c0.1,0.1,0.3,0.3,0.4,0.4
						c0.2,0.2-0.2-0.3,0,0c0,0.1,0.1,0.1,0.1,0.2c0.1,0.2,0.2,0.4,0.3,0.6c0,0,0.1,0.3,0,0.1c-0.1-0.3,0.1,0.2,0.1,0.2
						c0.1,0.2,0.1,0.4,0.2,0.6c0,0.1,0.1,0.4,0,0.1c0-0.3,0,0,0,0.1c0,0.2,0,0.4,0,0.7c0,0.1,0,0.2,0,0.2c0,0.2,0.1-0.3,0,0
						c0,0.2-0.1,0.4-0.2,0.6c0,0.3,0.2-0.2,0,0c0,0.1-0.1,0.2-0.1,0.2c-0.1,0.2-0.2,0.4-0.3,0.6c0.2-0.3-0.1,0.1-0.2,0.2
						c-0.1,0.1-0.2,0.1-0.2,0.2c0,0,0.3-0.2,0.1-0.1c-0.2,0.1-0.3,0.2-0.5,0.3c-0.1,0.1-0.7,0.3-0.3,0.1c-0.2,0.1-0.4,0.2-0.6,0.2
						c-0.2,0.1-0.4,0.1-0.6,0.1c-0.3,0.1,0.3,0,0,0c-0.1,0-0.2,0-0.2,0c-0.2,0-0.4,0-0.7,0c-0.1,0-0.2,0-0.2,0c-0.2,0,0.3,0.1,0,0
						c-0.2-0.1-0.4-0.1-0.5-0.1c-0.1,0-0.4-0.1-0.1,0c0.2,0.1,0,0-0.1,0c-0.2-0.1-0.4-0.2-0.6-0.3c0,0-0.2-0.2-0.1,0
						c0.2,0.2-0.1-0.1-0.2-0.2c-0.1-0.1-0.4-0.5-0.3-0.3c0.1,0.2-0.2-0.3-0.2-0.3C36.1,73.1,36,73,36,72.9c0,0.1,0.1,0.4,0,0
						c-0.1-0.2-0.1-0.4-0.2-0.6c0-0.1,0-0.2-0.1-0.3c0,0.2,0,0.3,0,0c0-0.3,0-0.5,0-0.8c0-0.1,0-0.2,0-0.3c0-0.5-0.1,0.2,0,0
						c0.1-0.2,0.1-0.5,0.2-0.7c0-0.1,0.1-0.2,0.1-0.2c0-0.2-0.2,0.3,0-0.1c0.1-0.2,0.2-0.4,0.3-0.6c0.1-0.1,0.1-0.2,0.2-0.3
						c-0.2,0.2-0.1,0.1,0.1,0c0.1-0.1,0.6-0.5,0.3-0.3c0.9-0.6,1.3-1.8,0.7-2.8C37.1,65.2,35.7,64.7,34.8,65.3L34.8,65.3z"/>
				</g>
			</g>
			<g>
				<g>
					<path class="st2" d="M117.8,34.2c4,5.8,6.1,12.6,6.1,19.5c0,6.5-1.9,12.6-5.7,17.9c-0.2,0.3-0.5,0.6-0.7,1
						c0.2-0.3-0.2,0.2-0.2,0.2c-0.1,0.2-0.3,0.3-0.4,0.5c-0.5,0.6-1,1.2-1.6,1.8c-0.5,0.5-1,1-1.6,1.5c-0.3,0.3-0.6,0.5-0.9,0.8
						c-0.2,0.1-0.3,0.3-0.5,0.4c-0.1,0.1-0.2,0.2-0.3,0.2c0.1-0.1,0.1-0.1-0.1,0c-1.3,0.9-2.6,1.8-4,2.6c-0.6,0.3-1.3,0.7-2,1
						c-0.6,0.3,0.4-0.1-0.3,0.1c-0.2,0.1-0.4,0.1-0.6,0.2c-0.4,0.1-0.8,0.3-1.2,0.4c-3.3,1.1-6.1,1.5-9.5,1.3
						c-0.8,0-1.6-0.1-2.4-0.2c-0.6-0.1-1.4-0.2-2.2-0.4c-1.6-0.3-3.2-0.8-4.8-1.4c0,0-0.6-0.3-0.3-0.1c-0.2-0.1-0.4-0.2-0.6-0.3
						c-0.4-0.2-0.9-0.4-1.3-0.6c-0.8-0.4-1.6-0.9-2.3-1.4c-1.5-1-2.7-2-4.1-3.5c-0.7-0.8-1-1.1-1.5-1.9c-0.6-0.8-1-1.7-1.4-2.6
						c-0.3-0.6,0.1,0.3-0.1-0.3c-0.1-0.2-0.2-0.5-0.2-0.7c-0.1-0.4-0.3-0.9-0.4-1.3c0-0.2-0.1-0.4-0.1-0.6c0-0.1,0-0.3-0.1-0.4
						c0,0.2,0,0.2,0-0.1c0-0.5-0.1-1,0-1.5c0-1.1-0.9-2.1-2-2c-1.1,0-2,0.9-2,2c-0.1,7.7,5.7,14.2,12.1,17.6
						c6.5,3.5,14.1,4.5,21.3,2.9c6.8-1.4,13-5.4,17.5-10.6c4.7-5.6,7.6-12.4,8.2-19.7c0.7-7.7-1.2-15.6-5.1-22.2
						c-0.5-0.8-1-1.6-1.5-2.4c-0.6-0.9-1.8-1.3-2.8-0.7C117.6,31.9,117.2,33.3,117.8,34.2L117.8,34.2z"/>
				</g>
			</g>
			<g>
				<g>
					<path class="st2" d="M98.4,68.8c-0.3-0.2,0.1,0.1,0.2,0.2c0.1,0.1,0.4,0.5,0.2,0.1c0.1,0.2,0.3,0.4,0.4,0.6
						c0.1,0.1,0.3,0.7,0.1,0.3c0.1,0.4,0.2,0.7,0.3,1.1c-0.1-0.5,0,0.2,0,0.3c0,0.2,0,0.4,0,0.7c0,0.1-0.1,0.3,0,0
						c0,0.1,0,0.2,0,0.2c0,0.2-0.1,0.4-0.2,0.6c0,0.1-0.1,0.2-0.1,0.3c0-0.1,0.2-0.3,0,0c-0.1,0.2-0.2,0.4-0.3,0.6
						c0.2-0.3-0.1,0.1-0.2,0.2c-0.1,0.1-0.5,0.4-0.2,0.2c-0.2,0.1-0.4,0.2-0.5,0.3c-0.1,0-0.2,0.1-0.2,0.1c-0.2,0.1,0.3-0.1,0,0
						c-0.2,0-0.4,0.1-0.5,0.2c-0.5,0.1,0.2,0-0.2,0c-0.2,0-0.4,0-0.7,0c-0.2,0-0.7-0.1-0.3,0c-0.4-0.1-0.7-0.2-1.1-0.3
						c-0.4-0.1,0,0,0,0c-0.1,0-0.2-0.1-0.3-0.1c-0.2-0.1-0.4-0.2-0.6-0.3c-0.1-0.1-0.2-0.2,0,0c-0.1-0.1-0.1-0.1-0.2-0.2
						c-0.1-0.1-0.3-0.3-0.4-0.4c0.3,0.2,0.1,0.1,0,0c-0.1-0.1-0.1-0.2-0.2-0.3c-0.1-0.1-0.3-0.7-0.1-0.3c-0.1-0.2-0.1-0.4-0.2-0.6
						c0-0.1-0.1-0.4,0-0.1c0,0.3,0,0,0-0.1c0-0.2,0-0.4,0-0.7c0-0.1,0-0.2,0-0.2c0-0.2-0.1,0.3,0,0c0.1-0.2,0.1-0.4,0.2-0.6
						c0-0.1,0.1-0.2,0.1-0.3c-0.1,0.3-0.1,0.1,0-0.1c0.1-0.2,0.2-0.4,0.3-0.6c0-0.1,0.2-0.3,0.1-0.1c-0.2,0.2,0.2-0.2,0.2-0.2
						c0.1-0.2,0.3-0.3,0.5-0.5c0.1-0.1,0.3-0.2,0,0c0.1-0.1,0.2-0.1,0.3-0.2c0.1-0.1,0.2-0.1,0.3-0.2c0,0,0.5-0.2,0.2-0.1
						c-0.2,0.1,0,0,0.1,0c0.2,0,0.3-0.1,0.5-0.1c1.1-0.2,1.7-1.5,1.4-2.5c-0.3-1.1-1.4-1.7-2.5-1.4c-5.3,1.2-7.6,8.5-3.6,12.3
						c1.9,1.8,4.7,2.5,7.2,1.9c2.5-0.6,4.5-2.7,5-5.2c0.6-3-0.4-6.1-2.9-7.9c-0.9-0.6-2.3-0.2-2.8,0.7
						C97.1,67.1,97.5,68.1,98.4,68.8L98.4,68.8z"/>
				</g>
			</g>
		</g>
		<g>
			<path class="st1" d="M23.6,9.4h-5.1v14h-2.8v-14h-5V7.1h12.9V9.4z"/>
			<path class="st1" d="M38.4,15.7c0,1.6-0.3,3-0.8,4.2c-0.6,1.2-1.3,2.1-2.4,2.8c-1,0.6-2.2,1-3.5,1c-1.3,0-2.5-0.3-3.5-1
				c-1-0.6-1.8-1.6-2.4-2.8c-0.6-1.2-0.8-2.6-0.9-4.1v-0.9c0-1.6,0.3-3,0.8-4.2c0.6-1.2,1.4-2.1,2.4-2.8c1-0.6,2.2-1,3.5-1
				c1.3,0,2.5,0.3,3.5,1c1,0.6,1.8,1.6,2.4,2.8s0.8,2.6,0.8,4.2V15.7z M35.6,14.9c0-1.8-0.3-3.2-1-4.1s-1.6-1.4-2.9-1.4
				c-1.2,0-2.2,0.5-2.9,1.4c-0.7,1-1,2.3-1.1,4.1v0.9c0,1.8,0.3,3.2,1,4.1c0.7,1,1.7,1.5,2.9,1.5c1.3,0,2.2-0.5,2.9-1.4
				c0.7-1,1-2.3,1-4.2V14.9z"/>
			<path class="st1" d="M53.1,7.1V18c0,1.7-0.6,3.1-1.7,4.1c-1.1,1-2.6,1.5-4.4,1.5c-1.9,0-3.3-0.5-4.4-1.5s-1.6-2.4-1.6-4.1V7.1
				h2.8V18c0,1.1,0.3,1.9,0.8,2.5c0.6,0.6,1.4,0.9,2.4,0.9c2.2,0,3.3-1.1,3.3-3.4V7.1H53.1z"/>
			<path class="st1" d="M68.6,18.1c-0.2,1.7-0.8,3.1-1.9,4.1c-1.1,1-2.6,1.5-4.5,1.5c-1.3,0-2.4-0.3-3.4-0.9c-1-0.6-1.7-1.5-2.3-2.6
				c-0.5-1.1-0.8-2.4-0.8-3.9v-1.5c0-1.5,0.3-2.9,0.8-4.1c0.5-1.2,1.3-2.1,2.3-2.7c1-0.6,2.2-1,3.5-1c1.8,0,3.2,0.5,4.3,1.5
				c1.1,1,1.7,2.3,1.9,4.1h-2.8c-0.1-1.2-0.5-2-1-2.5c-0.5-0.5-1.4-0.8-2.4-0.8c-1.2,0-2.2,0.4-2.8,1.3c-0.7,0.9-1,2.2-1,4v1.4
				c0,1.8,0.3,3.1,0.9,4c0.6,0.9,1.6,1.4,2.8,1.4c1.1,0,1.9-0.2,2.5-0.7c0.6-0.5,0.9-1.3,1.1-2.5H68.6z"/>
			<path class="st1" d="M84,23.4h-2.8v-7.2h-7.3v7.2h-2.8V7.1h2.8v6.8h7.3V7.1H84V23.4z"/>
			<path class="st1" d="M96.7,7.1l4.7,12.5l4.7-12.5h3.7v16.3h-2.8V18l0.3-7.2l-4.8,12.5h-2l-4.8-12.5l0.3,7.2v5.4H93V7.1H96.7z"/>
			<path class="st1" d="M118.1,14.9l3.7-7.7h3.1l-5.5,10.3v6h-2.8v-6l-5.5-10.3h3.1L118.1,14.9z"/>
		</g>
	</g>
	<g>
		<g>
			<g>
				<g>
					<path class="st2" d="M13.6,31.9c-4.4,6.4-6.8,14.2-6.7,22c0,7.3,2.3,14.6,6.7,20.4c4.2,5.8,10.1,10.3,17,12.4
						c7,2.2,14.8,1.7,21.6-1.1c3.4-1.4,6.6-3.5,9.2-6.2c2.6-2.7,4.8-6.2,5.4-9.9c0.2-1,0.3-2,0.3-3c0-1.3-1.1-2.5-2.4-2.4
						c-1.3,0.1-2.5,1.1-2.4,2.4c0,0.4,0,0.8,0,1.3c0,0.1-0.1,0.8,0,0.2c0,0.2-0.1,0.4-0.1,0.6c-0.2,0.8-0.4,1.6-0.7,2.4
						c-0.2,0.6,0.2-0.4-0.1,0.2c-0.1,0.2-0.2,0.4-0.3,0.6c-0.2,0.4-0.4,0.7-0.6,1.1c-0.2,0.3-0.4,0.6-0.6,0.9
						c-0.1,0.2-0.2,0.4-0.4,0.5c-0.1,0.1-0.2,0.2-0.3,0.3c0.2-0.2,0.2-0.2,0,0c-1.1,1.3-2.3,2.5-3.6,3.6c0.4-0.3-0.1,0.1-0.2,0.1
						c-0.2,0.1-0.3,0.2-0.5,0.4c-0.3,0.2-0.6,0.4-0.9,0.6c-0.8,0.5-1.5,0.9-2.3,1.3c-0.3,0.2-0.7,0.3-1,0.5
						c-0.2,0.1-0.3,0.1-0.5,0.2c0.5-0.2-0.1,0-0.2,0.1c-0.8,0.3-1.7,0.6-2.5,0.9c-0.7,0.2-1.5,0.4-2.2,0.6c-0.4,0.1-0.8,0.2-1.2,0.2
						c-0.2,0-0.4,0.1-0.6,0.1c0.6-0.1-0.1,0-0.2,0c-1.7,0.2-3.3,0.2-5,0.2c-0.4,0-0.8-0.1-1.2-0.1c-0.2,0-0.4,0-0.6-0.1
						c-0.1,0-0.8-0.1-0.2,0c-0.8-0.1-1.6-0.3-2.4-0.5c-0.8-0.2-1.6-0.4-2.4-0.7c-0.3-0.1-0.7-0.2-1-0.3c-0.2-0.1-0.4-0.1-0.6-0.2
						c-0.1,0-0.2-0.1-0.4-0.1c0.3,0.1,0.3,0.1,0,0c-1.5-0.7-2.9-1.4-4.2-2.3c-0.6-0.4-1.2-0.8-1.8-1.3c-0.5-0.4,0.4,0.3-0.1-0.1
						c-0.2-0.1-0.3-0.2-0.5-0.4c-0.4-0.3-0.7-0.6-1.1-0.9c-1.1-1-2.2-2.1-3.2-3.3c-0.1-0.2-0.3-0.3-0.4-0.5
						c-0.1-0.1-0.5-0.6-0.1-0.1c-0.2-0.3-0.5-0.6-0.7-1c-0.5-0.7-0.9-1.3-1.3-2c-0.4-0.7-0.8-1.4-1.2-2.1c-0.2-0.3-0.3-0.6-0.4-0.9
						c-0.1-0.2-0.2-0.4-0.3-0.5c0-0.1-0.4-0.9-0.2-0.3c-0.6-1.5-1.1-3-1.5-4.6c-0.2-0.8-0.4-1.6-0.5-2.4c0-0.2-0.1-0.4-0.1-0.7
						c-0.1-0.7,0,0.5,0-0.2c-0.1-0.5-0.1-1-0.1-1.5c-0.1-1.9-0.1-3.9,0.1-5.8c0-0.2,0-0.4,0.1-0.7c0-0.1,0-0.3,0.1-0.4
						c0,0.3,0,0.3,0,0c0.1-0.5,0.2-1,0.3-1.5c0.2-1,0.4-1.9,0.7-2.8c0.3-0.9,0.5-1.9,0.9-2.8c0.2-0.5,0.4-1,0.6-1.5
						c0.3-0.7-0.2,0.4,0.1-0.2c0.1-0.3,0.2-0.5,0.4-0.8c0.8-1.8,1.8-3.6,3-5.2c0.7-1.1,0.2-2.7-0.9-3.3
						C15.7,30.4,14.4,30.8,13.6,31.9L13.6,31.9z"/>
				</g>
			</g>
			<g>
				<g>
					<path class="st2" d="M34.6,65c-2.3,1.6-3.6,4.3-3.3,7.1c0.3,3,2,5.5,4.8,6.5c2.4,0.9,5.3,0.5,7.4-1c2.4-1.8,3.5-4.6,3-7.5
						c-0.5-2.9-2.9-5.6-5.8-6.2c-1.2-0.3-2.7,0.4-3,1.7c-0.3,1.2,0.4,2.7,1.7,3c0.2,0,0.4,0.1,0.6,0.2c0.3,0-0.4-0.2-0.1-0.1
						c0.1,0,0.2,0.1,0.2,0.1c0.1,0,0.5,0.3,0.6,0.3c0,0-0.4-0.3-0.2-0.1c0.1,0.1,0.2,0.2,0.3,0.3c0.1,0.1,0.3,0.3,0.4,0.4
						c0.2,0.2-0.2-0.4-0.1-0.1c0,0.1,0.1,0.1,0.1,0.2c0.1,0.2,0.2,0.4,0.3,0.6c0,0.1,0.1,0.3,0,0c-0.1-0.4,0,0.1,0.1,0.2
						c0.1,0.2,0.1,0.4,0.2,0.6c0.2,0.6,0-0.3,0,0.1c0,0.2,0,0.4,0,0.7c0,0.1,0,0.2,0,0.2c0,0.3,0.1-0.5,0-0.1c0,0.2-0.1,0.4-0.2,0.6
						c0,0.3,0.2-0.4,0.1-0.1c0,0.1-0.1,0.2-0.1,0.2c-0.1,0.1-0.2,0.5-0.3,0.6c0,0,0.3-0.4,0.1-0.2c-0.1,0.1-0.2,0.2-0.3,0.3
						c0,0-0.2,0.2-0.2,0.2c0,0,0.4-0.3,0.2-0.1c-0.2,0.1-0.3,0.2-0.5,0.3c-0.1,0.1-0.2,0.1-0.3,0.2c-0.3,0.2,0.1,0,0.1,0
						c-0.1,0.1-0.5,0.2-0.6,0.2c-0.2,0.1-0.4,0.1-0.6,0.1c-0.3,0.1,0.5,0,0.2,0c-0.1,0-0.2,0-0.2,0c-0.2,0-0.4,0-0.7,0
						c-0.1,0-0.2,0-0.2,0c-0.3,0,0.5,0.1,0.1,0c-0.2-0.1-0.4-0.1-0.5-0.1c-0.6-0.2,0.3,0.2-0.1,0c-0.2-0.1-0.4-0.2-0.6-0.3
						c-0.1-0.1-0.2-0.2,0,0c0.2,0.3-0.1-0.1-0.1-0.1c-0.1-0.1-0.1-0.2-0.2-0.2c-0.1-0.1-0.1-0.3,0,0c0.1,0.3-0.1-0.2-0.2-0.3
						c0,0-0.2-0.3-0.2-0.3c0,0,0.2,0.6,0.1,0.1c-0.1-0.2-0.1-0.4-0.2-0.6c0,0-0.1-0.3-0.1-0.3c0,0,0,0.6,0,0.1c0-0.3,0-0.5,0-0.8
						c0-0.1,0-0.2,0-0.3c0-0.5-0.1,0.4,0,0.1c0.1-0.2,0.1-0.5,0.2-0.7c0-0.1,0.1-0.2,0.1-0.2c0-0.3-0.2,0.4,0,0
						c0.1-0.2,0.2-0.4,0.3-0.6c0,0,0.1-0.2,0.2-0.3c-0.2,0.1-0.3,0.3,0,0.1c0.1-0.1,0.7-0.6,0.2-0.2c1-0.7,1.6-2.1,0.9-3.3
						C37.3,64.8,35.7,64.2,34.6,65L34.6,65z"/>
				</g>
			</g>
			<g>
				<g>
					<path class="st2" d="M117.5,34.4c1,1.5,1.9,3,2.7,4.6c0.2,0.4,0.4,0.8,0.6,1.2c0,0,0.3,0.7,0.1,0.2c0.1,0.2,0.2,0.4,0.3,0.6
						c0.3,0.8,0.6,1.7,0.9,2.5c0.5,1.7,0.9,3.4,1.2,5.2c0,0.2,0.1,0.4,0.1,0.7c-0.1-0.6,0,0.2,0,0.2c0,0.4,0.1,0.7,0.1,1.1
						c0.1,1,0.1,1.9,0.1,2.9c0,0.8,0,1.6-0.1,2.4c0,0.4-0.1,0.9-0.1,1.3c0,0.1-0.1,0.8,0,0.2c0,0.3-0.1,0.6-0.1,0.9
						c-0.3,1.6-0.6,3.2-1.2,4.7c-0.2,0.8-0.5,1.5-0.8,2.2c0.2-0.5,0,0.1-0.1,0.2c-0.1,0.2-0.2,0.4-0.2,0.5c-0.2,0.4-0.3,0.7-0.5,1.1
						c-0.7,1.4-1.6,2.8-2.5,4.1c-0.2,0.3-0.5,0.6-0.7,1c0.3-0.5-0.1,0.1-0.1,0.1c-0.1,0.2-0.3,0.3-0.4,0.5c-0.5,0.6-1,1.2-1.6,1.8
						c-0.5,0.5-1,1-1.6,1.5c-0.3,0.3-0.6,0.5-0.9,0.8c-0.2,0.1-0.3,0.3-0.5,0.4c-0.1,0.1-0.2,0.2-0.3,0.2c0.2-0.2,0.2-0.2,0,0
						c-1.3,0.9-2.6,1.8-4,2.6c-0.6,0.3-1.3,0.7-2,1c-0.6,0.3,0.5-0.2-0.2,0.1c-0.2,0.1-0.4,0.1-0.6,0.2c-0.4,0.1-0.8,0.3-1.2,0.4
						c-1.6,0.5-3.2,0.9-4.8,1.1c0.6-0.1-0.1,0-0.2,0c-0.2,0-0.4,0-0.6,0.1c-0.4,0-0.8,0.1-1.2,0.1c-0.8,0-1.7,0.1-2.5,0
						c-0.8,0-1.6-0.1-2.4-0.2c-0.2,0-0.3,0-0.5-0.1c0.6,0.1-0.1,0-0.2,0c-0.5-0.1-1-0.2-1.4-0.3c-1.6-0.3-3.2-0.8-4.8-1.4
						c-0.1,0-0.7-0.3-0.2-0.1c-0.2-0.1-0.4-0.2-0.6-0.3c-0.4-0.2-0.9-0.4-1.3-0.6c-0.8-0.4-1.6-0.9-2.3-1.4
						c-0.4-0.3-0.8-0.6-1.2-0.8c-0.6-0.4,0.4,0.3-0.2-0.1c-0.2-0.2-0.4-0.4-0.6-0.5c-0.7-0.6-1.4-1.2-2-1.9c-0.3-0.4-0.7-0.7-1-1.1
						c0.3,0.4-0.1-0.1-0.1-0.2c-0.1-0.2-0.2-0.3-0.4-0.5c-0.6-0.8-1-1.7-1.4-2.6c-0.3-0.6,0.1,0.5-0.1-0.2c-0.1-0.2-0.2-0.5-0.2-0.7
						c-0.1-0.4-0.3-0.9-0.4-1.3c0-0.2-0.1-0.4-0.1-0.6c0-0.1,0-0.3-0.1-0.4c0,0.3,0,0.3,0,0c0-0.5-0.1-1,0-1.5
						c0-1.3-1.1-2.5-2.4-2.4c-1.3,0.1-2.4,1.1-2.4,2.4c-0.1,7.8,5.8,14.4,12.3,18c6.6,3.5,14.3,4.5,21.6,3
						c6.9-1.4,13.1-5.4,17.7-10.7c4.8-5.7,7.7-12.6,8.4-20c0.7-7.7-1.2-15.7-5.1-22.4c-0.5-0.8-1-1.6-1.5-2.4
						c-0.7-1-2.2-1.6-3.3-0.9C117.3,31.7,116.7,33.2,117.5,34.4L117.5,34.4z"/>
				</g>
			</g>
			<g>
				<g>
					<path class="st2" d="M98.2,69.1C97.8,68.9,98.1,69.1,98.2,69.1c0.2,0.2,0.2,0.3,0.3,0.3c0.2,0.2-0.1-0.2-0.1-0.2
						c0.1,0.1,0.3,0.4,0.4,0.6c0,0.1,0.1,0.1,0.1,0.2c0.2,0.4,0.1,0,0,0c0.1,0,0.4,1.1,0.3,1.1c0,0,0-0.5,0-0.1c0,0.1,0,0.2,0,0.3
						c0,0.2,0,0.4,0,0.7c0,0.4,0.1-0.4,0,0.1c0,0.2-0.1,0.4-0.2,0.6c0,0-0.1,0.3-0.1,0.3c0,0,0.3-0.5,0-0.1
						c-0.1,0.1-0.2,0.6-0.3,0.6c0,0,0.4-0.4,0.1-0.1c-0.1,0.1-0.1,0.1-0.2,0.2c-0.1,0.1-0.2,0.1-0.2,0.2c-0.2,0.2,0.2-0.1,0.2-0.1
						c-0.1,0.1-0.4,0.3-0.5,0.3c-0.1,0-0.2,0.1-0.2,0.1c-0.2,0.2,0.5-0.1,0.1,0c-0.2,0-0.4,0.1-0.5,0.2c-0.6,0.2,0.3,0-0.1,0
						c-0.2,0-0.4,0-0.7,0c-0.1,0-0.2,0-0.2,0c-0.6,0,0.1,0,0.1,0c0,0.1-1-0.3-1.1-0.3c-0.5-0.1,0.1,0.1,0.1,0.1c0,0-0.3-0.2-0.3-0.1
						c-0.2-0.1-0.4-0.2-0.6-0.3c-0.3-0.2,0.1,0.1,0.1,0.1c0,0-0.2-0.1-0.2-0.2c0,0-0.4-0.4-0.4-0.4c0,0,0.3,0.4,0.1,0.1
						c-0.1-0.1-0.1-0.2-0.2-0.3c0-0.1-0.1-0.1-0.1-0.2c-0.2-0.4,0,0,0,0c-0.1,0-0.1-0.5-0.2-0.6c-0.2-0.6,0,0.3,0-0.1
						c0-0.2,0-0.4,0-0.7c0-0.1,0-0.2,0-0.2c0-0.3-0.1,0.5,0,0.1c0.1-0.2,0.1-0.4,0.2-0.6c0,0,0.1-0.3,0.1-0.3c-0.1,0.1-0.2,0.4,0,0
						c0.1-0.2,0.2-0.4,0.3-0.6c0-0.1,0.2-0.4,0.1-0.1c-0.2,0.3,0.1-0.1,0.1-0.1c0.1-0.2,0.3-0.3,0.5-0.5c0.2-0.2-0.1,0-0.1,0.1
						c0-0.1,0.2-0.2,0.3-0.2c0.1-0.1,0.2-0.1,0.3-0.2c0.1-0.1,0.5-0.1,0.2-0.1c-0.3,0.1-0.1,0,0,0c0.2,0,0.3-0.1,0.5-0.1
						c1.2-0.3,2.1-1.8,1.7-3c-0.4-1.3-1.7-2-3-1.7c-5.6,1.3-8,9-3.8,13c2,1.9,4.9,2.6,7.6,2c2.6-0.6,4.8-2.9,5.3-5.5
						c0.7-3.2-0.5-6.4-3.1-8.4c-1-0.7-2.7-0.2-3.3,0.9C96.7,67.1,97.1,68.3,98.2,69.1L98.2,69.1z"/>
				</g>
			</g>
		</g>
		<g>
			<path class="st1" d="M23.6,9.4h-5.1v14h-2.8v-14h-5V7.1h12.9V9.4z"/>
			<path class="st1" d="M38.4,15.7c0,1.6-0.3,3-0.8,4.2c-0.6,1.2-1.3,2.1-2.4,2.8c-1,0.6-2.2,1-3.5,1c-1.3,0-2.5-0.3-3.5-1
				c-1-0.6-1.8-1.6-2.4-2.8c-0.6-1.2-0.8-2.6-0.9-4.1v-0.9c0-1.6,0.3-3,0.8-4.2c0.6-1.2,1.4-2.1,2.4-2.8c1-0.6,2.2-1,3.5-1
				c1.3,0,2.5,0.3,3.5,1c1,0.6,1.8,1.6,2.4,2.8s0.8,2.6,0.8,4.2V15.7z M35.6,14.9c0-1.8-0.3-3.2-1-4.1s-1.6-1.4-2.9-1.4
				c-1.2,0-2.2,0.5-2.9,1.4c-0.7,1-1,2.3-1.1,4.1v0.9c0,1.8,0.3,3.2,1,4.1c0.7,1,1.7,1.5,2.9,1.5c1.3,0,2.2-0.5,2.9-1.4
				c0.7-1,1-2.3,1-4.2V14.9z"/>
			<path class="st1" d="M53.1,7.1V18c0,1.7-0.6,3.1-1.7,4.1c-1.1,1-2.6,1.5-4.4,1.5c-1.9,0-3.3-0.5-4.4-1.5s-1.6-2.4-1.6-4.1V7.1
				h2.8V18c0,1.1,0.3,1.9,0.8,2.5c0.6,0.6,1.4,0.9,2.4,0.9c2.2,0,3.3-1.1,3.3-3.4V7.1H53.1z"/>
			<path class="st1" d="M68.6,18.1c-0.2,1.7-0.8,3.1-1.9,4.1c-1.1,1-2.6,1.5-4.5,1.5c-1.3,0-2.4-0.3-3.4-0.9c-1-0.6-1.7-1.5-2.3-2.6
				c-0.5-1.1-0.8-2.4-0.8-3.9v-1.5c0-1.5,0.3-2.9,0.8-4.1c0.5-1.2,1.3-2.1,2.3-2.7c1-0.6,2.2-1,3.5-1c1.8,0,3.2,0.5,4.3,1.5
				c1.1,1,1.7,2.3,1.9,4.1h-2.8c-0.1-1.2-0.5-2-1-2.5c-0.5-0.5-1.4-0.8-2.4-0.8c-1.2,0-2.2,0.4-2.8,1.3c-0.7,0.9-1,2.2-1,4v1.4
				c0,1.8,0.3,3.1,0.9,4c0.6,0.9,1.6,1.4,2.8,1.4c1.1,0,1.9-0.2,2.5-0.7c0.6-0.5,0.9-1.3,1.1-2.5H68.6z"/>
			<path class="st1" d="M84,23.4h-2.8v-7.2h-7.3v7.2h-2.8V7.1h2.8v6.8h7.3V7.1H84V23.4z"/>
			<path class="st1" d="M96.7,7.1l4.7,12.5l4.7-12.5h3.7v16.3h-2.8V18l0.3-7.2l-4.8,12.5h-2l-4.8-12.5l0.3,7.2v5.4H93V7.1H96.7z"/>
			<path class="st1" d="M118.1,14.9l3.7-7.7h3.1l-5.5,10.3v6h-2.8v-6l-5.5-10.3h3.1L118.1,14.9z"/>
		</g>
	</g>
</g>
</svg>
